# xmcd CD database file
#
# Track frame offsets:
#	150
#	18664
#	35301
#	52833
#	72305
#	87101
#	99843
#	115361
#	132315
#	148153
#
# Disc length: 2245 seconds
#
# Revision: 2
# Processed by: cddbd v1.5.2PL0 Copyright (c) Steve Scherf et al.
# Submitted via: CDex 1.51
#
DISCID=8308c30a
DTITLE=De Palmas - La beauté du geste
DYEAR=2016
DGENRE=Chanson Française
TTITLE0=Il faut qu'on s'batte
TTITLE1=Le jour de nos fiançailles
TTITLE2=La beauté du geste
TTITLE3=Rose pleure
TTITLE4=Bref
TTITLE5=Mêmes causes mêmes effets
TTITLE6=T'es belle à en crever
TTITLE7=Ma p'tite reine
TTITLE8=J'ai envie de toi
TTITLE9=Lawrence d'Arabie
EXTD=YEAR: 2016
EXTT0=
EXTT1=
EXTT2=
EXTT3=
EXTT4=
EXTT5=
EXTT6=
EXTT7=
EXTT8=
EXTT9=
PLAYORDER=
